# xmcd
#
# Track frame offsets:
# 150
# 20695
# 40567
# 58157
# 92052
# 124652
# 140425
# 200872
#
# Disc length: 3096 seconds
#
#
# Revision: 0
# Processed by: cddbd v1.5.2PL0 Copyright (c) Steve Scherf et al.
# Submitted via: Nero 7, 11, 10, 0 
#
DISCID=700c1608
DTITLE=L.A. Jones and The Blues Messengers - A Day Late And A Dollar Short
DYEAR=1991
DGENRE=Blues
TTITLE0=Murderin' My Success
TTITLE1=What I'd Do
TTITLE2=Quit Buggin' Me
TTITLE3=Mr. Fix-It
TTITLE4=Can't Play Nothin' But The Blues
TTITLE5=Hell On Wheels
TTITLE6=A Day Late And A Dollar Short
TTITLE7=Knuf
EXTD=
EXTT0=Murderin' My Success
EXTT1=What I'd Do
EXTT2=Quit Buggin' Me
EXTT3=Mr. Fix-It
EXTT4=Can't Play Nothin' But The Blues
EXTT5=Hell On Wheels
EXTT6=A Day Late And A Dollar Short
EXTT7=Knuf
PLAYORDER=
